<svg width="24" height="24" viewBox="0 0 24 24" fill="none" xmlns="http://www.w3.org/2000/svg">
<path fill-rule="evenodd" clip-rule="evenodd" d="M16.8888 18.318C16.7168 17.885 16.4728 17.507 16.2588 17.184C16.1508 17.022 16.0398 16.857 15.9428 16.687C15.5538 16.011 15.6878 15.737 16.3188 14.68L16.4208 14.507C16.9318 13.646 16.9598 12.82 16.9858 12.092C16.9978 11.734 17.0098 11.397 17.0788 11.08C17.2398 10.348 18.7868 10.153 19.7458 10.038C19.9068 10.667 19.9998 11.322 19.9998 12C19.9998 14.569 18.7778 16.853 16.8888 18.318ZM11.9998 4C12.6158 4 13.2108 4.076 13.7868 4.208C13.6178 4.58 13.3568 4.919 13.0128 5.188C12.7948 5.36 12.5498 5.503 12.3068 5.648C11.6558 6.036 10.9188 6.476 10.4568 7.322C9.84076 8.452 9.84076 9.606 9.84076 10.624C9.84076 11.979 9.79676 12.78 8.89276 13.487C7.52376 14.56 5.42876 13.961 4.13276 13.416C4.05076 12.955 3.99976 12.483 3.99976 12C3.99976 7.589 7.58876 4 11.9998 4ZM11.9998 2C6.48576 2 1.99976 6.486 1.99976 12C1.99976 17.513 6.48576 22 11.9998 22C17.5138 22 21.9998 17.513 21.9998 12C21.9998 6.486 17.5138 2 11.9998 2Z" fill="#282B31"/>
<mask id="mask0" mask-type="alpha" maskUnits="userSpaceOnUse" x="1" y="2" width="21" height="20">
<path fill-rule="evenodd" clip-rule="evenodd" d="M16.8888 18.318C16.7168 17.885 16.4728 17.507 16.2588 17.184C16.1508 17.022 16.0398 16.857 15.9428 16.687C15.5538 16.011 15.6878 15.737 16.3188 14.68L16.4208 14.507C16.9318 13.646 16.9598 12.82 16.9858 12.092C16.9978 11.734 17.0098 11.397 17.0788 11.08C17.2398 10.348 18.7868 10.153 19.7458 10.038C19.9068 10.667 19.9998 11.322 19.9998 12C19.9998 14.569 18.7778 16.853 16.8888 18.318ZM11.9998 4C12.6158 4 13.2108 4.076 13.7868 4.208C13.6178 4.58 13.3568 4.919 13.0128 5.188C12.7948 5.36 12.5498 5.503 12.3068 5.648C11.6558 6.036 10.9188 6.476 10.4568 7.322C9.84076 8.452 9.84076 9.606 9.84076 10.624C9.84076 11.979 9.79676 12.78 8.89276 13.487C7.52376 14.56 5.42876 13.961 4.13276 13.416C4.05076 12.955 3.99976 12.483 3.99976 12C3.99976 7.589 7.58876 4 11.9998 4ZM11.9998 2C6.48576 2 1.99976 6.486 1.99976 12C1.99976 17.513 6.48576 22 11.9998 22C17.5138 22 21.9998 17.513 21.9998 12C21.9998 6.486 17.5138 2 11.9998 2Z" fill="white"/>
</mask>
<g mask="url(#mask0)">
<rect width="24" height="24" fill="rgba(166, 173, 177, 1)"/>
</g>
</svg>
